<?xml version="1.0" encoding="iso-8859-1"?>
<!-- Generator: Adobe Illustrator 19.0.0, SVG Export Plug-In . SVG Version: 6.00 Build 0)  -->
<svg version="1.1" id="Capa_1" xmlns="http://www.w3.org/2000/svg" xmlns:xlink="http://www.w3.org/1999/xlink" x="0px" y="0px"
	 viewBox="0 0 496.5 496.5" style="enable-background:new 0 0 496.5 496.5;" xml:space="preserve">
<circle style="fill:#F16051;" cx="248.25" cy="211" r="211"/>
<path style="fill:#FDBF5E;" d="M164.15,318.5c11.6,8.5,18.6,20.9,18.6,34.9v24.8h127.2v-24.8c0-14,7-27.2,18.6-34.9
	c36.5-25.6,60.5-68.3,60.5-116.4c0-83.8-72.9-151.3-159-142c-63.6,7-115.6,58.2-124.9,121C97.45,238.6,122.25,289,164.15,318.5z"/>
<g>
	<path style="fill:#193651;" d="M319.65,385.5h-142.8v-31.8c0-11.6-6.2-22.5-15.5-29.5c-45.8-32.6-69.8-87.7-61.3-143.5
		c9.3-66.7,64.4-120.2,131.1-127.2c5.4-0.8,11.6-0.8,17.1-0.8c83,0,149.7,67.5,149.7,149.7c0,48.1-24,93.9-63.6,122.6
		c-10.1,7-15.5,17.8-15.5,29.5v31H319.65z M191.65,370.8h112.5v-17.1c0-16.3,8.5-31.8,21.7-41.1c35.7-25.6,57.4-66.7,57.4-110.2
		c0-74.5-60.5-135-135-135c-5.4,0-10.1,0-15.5,0.8c-60.5,7-110.2,55.1-117.9,114.8c-7,50.4,14,100.1,55.9,129.6
		c14,10.1,21.7,24.8,21.7,41.1v17.1L191.65,370.8L191.65,370.8z"/>
	<rect x="59.75" y="203.2" style="fill:#193651;" width="14.7" height="15.5"/>
	<rect x="420.45" y="203.2" style="fill:#193651;" width="14.7" height="15.5"/>
	
		<rect x="84.347" y="293.097" transform="matrix(-0.8661 0.4998 -0.4998 -0.8661 321.4869 515.5874)" style="fill:#193651;" width="14.699" height="15.499"/>
	
		<rect x="396.424" y="113.309" transform="matrix(-0.866 0.5 -0.5 -0.866 813.9814 24.007)" style="fill:#193651;" width="14.7" height="15.5"/>
	
		<rect x="330.65" y="47.396" transform="matrix(-0.5 0.866 -0.866 -0.5 554.7603 -209.9953)" style="fill:#193651;" width="14.7" height="15.5"/>
	<rect x="239.75" y="23.2" style="fill:#193651;" width="15.5" height="14.7"/>
	
		<rect x="149.632" y="47.386" transform="matrix(-0.8661 0.4999 -0.4999 -0.8661 321.051 23.4681)" style="fill:#193651;" width="15.5" height="14.7"/>
	
		<rect x="396.345" y="293.821" transform="matrix(-0.4999 0.8661 -0.8661 -0.4999 866.94 101.742)" style="fill:#193651;" width="15.5" height="14.7"/>
	
		<rect x="83.531" y="113.475" transform="matrix(-0.4999 0.8661 -0.8661 -0.4999 241.5564 102.1672)" style="fill:#193651;" width="15.5" height="14.7"/>
</g>
<polygon style="fill:#4FBF9F;" points="289.35,349 289.35,211.7 248.25,140.4 207.15,211.7 207.15,349 "/>
<path style="fill:#193651;" d="M289.35,356h-82.2c-3.9,0-7.8-3.1-7.8-7.8V211c0-1.6,0-2.3,0.8-3.9l41.1-71.4
	c1.6-2.3,3.9-3.9,6.2-3.9l0,0c2.3,0,5.4,1.6,6.2,3.9l41.1,71.4c0.8,0.8,0.8,2.3,0.8,3.9v137.3c0,2.3-0.8,3.9-2.3,5.4
	C291.65,355.3,290.95,356,289.35,356z M214.85,341.3h66.7v-128l-33.3-58.2l-33.4,59V341.3z"/>
<rect x="234.25" y="211.7" style="fill:#FFFFFF;" width="27.9" height="137.3"/>
<polyline style="fill:#E1E6E9;" points="288.55,211.7 248.25,140.4 207.95,211.7 "/>
<g>
	<path style="fill:#193651;" d="M288.55,218.7c-2.3,0-5.4-1.6-6.2-3.9l-34.1-59.7l-34.1,59.7c-2.3,3.9-6.2,4.7-10.1,3.1
		c-3.9-2.3-4.7-6.2-3.1-10.1l40.3-71.4c2.3-4.7,10.1-4.7,13.2,0l40.3,71.4c-0.1,4.9,0.8,7.8-3.1,10.1
		C291.65,218.7,290.15,218.7,288.55,218.7z"/>
	<polygon style="fill:#193651;" points="264.55,168.3 248.25,140.4 231.95,168.3 	"/>
</g>
<path style="fill:#E1E6E9;" d="M178.45,349v101.6c0,6.2,4.7,10.9,10.9,10.9h117.9c6.2,0,10.9-4.7,10.9-10.9V349H178.45z"/>
<g>
	<path style="fill:#193651;" d="M307.25,468.5h-118c-10.1,0-18.6-8.5-18.6-18.6V341.3h155.2v108.6
		C325.85,460.8,317.25,468.5,307.25,468.5z M185.45,356v93.9c0,2.3,1.6,3.9,3.9,3.9h117.9c2.3,0,3.9-1.6,3.9-3.9V356H185.45z"/>
	<rect x="162.95" y="370.8" style="fill:#193651;" width="171.4" height="14.7"/>
	<rect x="162.95" y="397.9" style="fill:#193651;" width="171.4" height="14.7"/>
	<rect x="162.95" y="425.1" style="fill:#193651;" width="171.4" height="14.7"/>
</g>
<path style="fill:#FFFFFF;" d="M209.45,461.5c0,18.6,14.7,27.9,33.4,27.9h11.6c18.6,0,33.4-9.3,33.4-27.9H209.45z"/>
<g>
	<path style="fill:#193651;" d="M201.75,453.8v7.8c0,20.9,16.3,34.9,40.3,34.9h11.6c24,0,40.3-14,40.3-34.9v-7.8H201.75z
		 M254.45,481.7h-11.6c-5.4,0-20.2-0.8-24.8-13.2h61.2C274.65,480.9,259.15,481.7,254.45,481.7z"/>
	<path style="fill:#193651;" d="M333.55,170.6c-7-20.9-23.3-38.8-42.7-48.9c-3.9-1.6-5.4-6.2-3.9-10.1c1.6-3.9,6.2-5.4,10.1-3.9
		c23.3,11.6,41.9,32.6,50.4,57.4c1.6,3.9-0.8,8.5-4.7,10.1C339.05,176.8,335.15,174.5,333.55,170.6z"/>
</g>
<g>
</g>
<g>
</g>
<g>
</g>
<g>
</g>
<g>
</g>
<g>
</g>
<g>
</g>
<g>
</g>
<g>
</g>
<g>
</g>
<g>
</g>
<g>
</g>
<g>
</g>
<g>
</g>
<g>
</g>
</svg>
